<svg class="svg-icon" style="width: 2em; height: 2em;vertical-align: middle;fill: currentColor;overflow: hidden;" viewBox="0 0 1024 1024" version="1.1" xmlns="http://www.w3.org/2000/svg"><path d="M730.0864 745.088l197.1968 197.1968a25.6 25.6 0 0 1-36.1984 36.1984l-198.8096-198.784A407.8848 407.8848 0 0 1 435.2 870.4C208.9728 870.4 25.6 687.0272 25.6 460.8S208.9728 51.2 435.2 51.2s409.6 183.3728 409.6 409.6c0 110.4128-43.6736 210.6112-114.7136 284.288zM435.2 819.2c197.9392 0 358.4-160.4608 358.4-358.4S633.1392 102.4 435.2 102.4 76.8 262.8608 76.8 460.8s160.4608 358.4 358.4 358.4z" fill="#000000" /></svg>